<svg width="739" height="767" viewBox="0 0 739 767" fill="none" xmlns="http://www.w3.org/2000/svg">
<path d="M737.464 333.236C733.867 324.911 724.654 319.375 714.358 319.375H416.912L588.482 31.0433C593.877 21.973 591.093 10.8801 581.807 4.57771C577.323 1.51171 571.929 0 566.559 0C560.819 0 555.08 1.74592 550.473 5.17388L369.493 140.27L8.54368 409.716C0.7596 415.529 -2.04858 424.918 1.54786 433.243C5.14431 441.568 14.3325 447.125 24.6291 447.125H322.075L150.505 735.458C145.11 744.528 147.893 755.621 157.18 761.923C161.663 764.989 167.058 766.501 172.428 766.501C178.168 766.501 183.907 764.755 188.514 761.327L369.493 626.231L730.443 356.785C738.252 350.972 741.035 341.583 737.464 333.236V333.236Z" fill="#FFAC33"/>
</svg>
