<svg width="1689" height="601" viewBox="0 0 1689 601" fill="none" xmlns="http://www.w3.org/2000/svg">
<rect width="498.39" height="601" rx="8" fill="#FFA200"/>
<path d="M422.904 118.414C430.546 118.414 436.194 118.746 439.849 119.41C443.836 119.743 448.155 121.238 452.807 123.896C457.791 126.554 461.28 131.039 463.273 137.352C465.267 143.665 466.263 152.138 466.263 162.77C466.263 173.403 465.267 181.875 463.273 188.188C461.28 194.501 457.791 198.987 452.807 201.645C447.823 203.971 443.338 205.466 439.35 206.13C435.696 206.462 429.881 206.629 421.907 206.629H269.399V256.966H367.582C375.556 256.966 381.371 257.298 385.026 257.963C389.013 258.295 393.498 259.79 398.482 262.448C407.121 267.432 411.441 280.556 411.441 301.821C411.441 325.079 405.128 338.868 392.502 343.188C387.186 344.849 378.713 345.679 367.084 345.679H269.399V439.875C269.399 447.849 269.067 453.664 268.403 457.319C268.07 460.974 267.853 465.081 263.859 469.075C262.472 470.461 245.817 469.075 239.701 469.075C216.443 469.075 202.82 462.762 198.833 450.136C196.84 444.82 195.843 436.347 195.843 424.718V176.93C195.843 159.985 198.999 148.522 205.312 142.541C211.625 136.229 223.586 133.072 241.196 133.072L422.904 118.414Z" fill="white"/>
<path d="M876.58 117.268C917.077 117.268 861.159 136.095 912.464 186.458C942.289 215.736 957.202 252.129 957.202 295.635C957.202 338.868 942.974 375.808 914.516 406.454C886.059 436.826 851.035 452.012 809.444 452.012C767.853 452.012 732.418 436.963 703.14 406.864C674.136 376.765 659.634 340.92 659.634 299.329C659.634 276.618 663.738 255.412 671.947 235.711C680.156 215.736 691.101 199.045 704.782 185.638C718.463 172.23 734.197 161.695 751.983 154.034C769.768 146.372 857.7 117.268 876.58 117.268ZM732.281 297.277C732.281 321.63 740.08 341.468 755.677 356.791C771.547 371.84 789.196 379.365 808.623 379.365C828.051 379.365 845.563 371.977 861.159 357.201C876.756 342.425 884.554 322.587 884.554 297.687C884.554 272.787 876.619 252.813 860.749 237.763C845.152 222.714 827.64 215.189 808.213 215.189C788.785 215.189 771.273 222.851 755.677 238.174C740.08 253.223 732.281 272.924 732.281 297.277Z" fill="white"/>
<path d="M1133.44 142.541C1173.94 142.541 1209.1 157.18 1238.92 186.458C1268.75 215.736 1283.66 252.129 1283.66 295.635C1283.66 338.868 1269.43 375.808 1240.98 406.454C1212.52 436.826 1177.49 452.012 1135.9 452.012C1094.31 452.012 1058.88 436.963 1029.6 406.864C1000.6 376.765 986.093 340.92 986.093 299.329C986.093 276.618 990.198 255.412 998.406 235.711C1006.62 215.736 1017.56 199.045 1031.24 185.638C1044.92 172.23 1060.66 161.695 1078.44 154.034C1096.23 146.372 1114.56 142.541 1133.44 142.541ZM1058.74 297.277C1058.74 321.63 1066.54 341.468 1082.14 356.791C1098.01 371.84 1115.66 379.365 1135.08 379.365C1154.51 379.365 1172.02 371.977 1187.62 357.201C1203.22 342.425 1211.01 322.587 1211.01 297.687C1211.01 272.787 1203.08 252.813 1187.21 237.763C1171.61 222.714 1154.1 215.189 1134.67 215.189C1115.24 215.189 1097.73 222.851 1082.14 238.174C1066.54 253.223 1058.74 272.924 1058.74 297.277Z" fill="white"/>
<path d="M1355.24 145.825L1431.17 146.235C1470.85 146.235 1505.73 160.601 1535.83 189.331C1565.93 217.789 1580.98 252.95 1580.98 294.814C1580.98 336.405 1566.2 372.114 1536.65 401.939C1507.37 431.764 1471.8 446.677 1429.94 446.677H1354.83C1338.14 446.677 1327.74 443.256 1323.63 436.416C1320.35 430.67 1318.71 421.914 1318.71 410.148V181.944C1318.71 175.377 1318.85 170.588 1319.12 167.578C1319.67 164.568 1321.03 161.011 1323.22 156.907C1327.05 149.519 1337.73 145.825 1355.24 145.825ZM1431.17 374.029C1450.87 374.029 1468.66 366.778 1484.53 352.276C1500.4 337.5 1508.33 319.03 1508.33 296.866C1508.33 274.703 1500.53 256.233 1484.94 241.457C1469.61 226.408 1451.55 218.883 1430.76 218.883H1391.36V374.029H1431.17Z" fill="white"/>
<path d="M1615.91 182.354C1615.91 176.061 1616.05 171.409 1616.32 168.399C1616.87 165.116 1618.23 161.422 1620.42 157.317C1624.25 149.929 1634.93 146.235 1652.44 146.235C1671.59 146.235 1682.95 151.297 1686.5 161.422C1687.87 166.073 1688.56 173.188 1688.56 182.764V410.969C1688.56 417.536 1688.28 422.324 1687.74 425.334C1687.46 428.344 1686.23 431.901 1684.04 436.005C1680.21 443.393 1669.54 447.087 1652.03 447.087C1632.87 447.087 1621.65 441.888 1618.37 431.491C1616.73 427.112 1615.91 420.135 1615.91 410.558V182.354Z" fill="white"/>
</svg>
