<svg width="24" height="24" viewBox="0 0 24 24" fill="none" xmlns="http://www.w3.org/2000/svg">
<g clip-path="url(#clip0_43_485)">
<path d="M13 1.0001C13 0.734885 13.1053 0.480531 13.2929 0.292995C13.4804 0.105458 13.7348 0.000101607 14 0.000101607C16.6512 0.0030132 19.1931 1.05752 21.0678 2.93225C22.9425 4.80698 23.997 7.34883 24 10.0001C24 10.2653 23.8946 10.5197 23.7071 10.7072C23.5195 10.8947 23.2652 11.0001 23 11.0001C22.7347 11.0001 22.4804 10.8947 22.2929 10.7072C22.1053 10.5197 22 10.2653 22 10.0001C21.9976 7.8791 21.154 5.84565 19.6542 4.34588C18.1544 2.8461 16.121 2.00248 14 2.0001C13.7348 2.0001 13.4804 1.89474 13.2929 1.70721C13.1053 1.51967 13 1.26532 13 1.0001ZM14 6.0001C15.0608 6.0001 16.0782 6.42153 16.8284 7.17168C17.5785 7.92182 18 8.93924 18 10.0001C18 10.2653 18.1053 10.5197 18.2929 10.7072C18.4804 10.8947 18.7347 11.0001 19 11.0001C19.2652 11.0001 19.5195 10.8947 19.7071 10.7072C19.8946 10.5197 20 10.2653 20 10.0001C19.9984 8.40929 19.3657 6.88409 18.2409 5.75922C17.116 4.63434 15.5908 4.00169 14 4.0001C13.7348 4.0001 13.4804 4.10546 13.2929 4.293C13.1053 4.48053 13 4.73489 13 5.0001C13 5.26532 13.1053 5.51967 13.2929 5.70721C13.4804 5.89475 13.7348 6.0001 14 6.0001ZM23.093 16.7391C23.6725 17.3202 23.9979 18.1074 23.9979 18.9281C23.9979 19.7488 23.6725 20.536 23.093 21.1171L22.183 22.1661C13.993 30.0071 -5.93701 10.0821 1.78298 1.8661L2.93298 0.866102C3.51475 0.302779 4.29491 -0.00884932 5.10468 -0.00136355C5.91445 0.00612221 6.68872 0.33212 7.25998 0.906102C7.29098 0.937102 9.14398 3.3441 9.14398 3.3441C9.6938 3.92173 9.99988 4.68903 9.99858 5.48651C9.99727 6.28398 9.68869 7.05028 9.13698 7.6261L7.97898 9.0821C8.61982 10.6392 9.56204 12.0543 10.7515 13.2462C11.9409 14.438 13.3542 15.3831 14.91 16.0271L16.375 14.8621C16.9509 14.3108 17.717 14.0026 18.5143 14.0015C19.3115 14.0004 20.0785 14.3064 20.656 14.8561C20.656 14.8561 23.062 16.7081 23.093 16.7391ZM21.717 18.1931C21.717 18.1931 19.324 16.3521 19.293 16.3211C19.0869 16.1168 18.8086 16.0022 18.5185 16.0022C18.2283 16.0022 17.95 16.1168 17.744 16.3211C17.717 16.3491 15.7 17.9561 15.7 17.9561C15.564 18.0643 15.4023 18.1352 15.2306 18.1619C15.0589 18.1885 14.8833 18.17 14.721 18.1081C12.7054 17.3577 10.8747 16.1828 9.35281 14.6632C7.83091 13.1435 6.65338 11.3145 5.89998 9.3001C5.83318 9.13556 5.8114 8.95619 5.83688 8.78044C5.86237 8.60469 5.93419 8.4389 6.04498 8.3001C6.04498 8.3001 7.65198 6.2821 7.67898 6.2561C7.88324 6.05009 7.99786 5.77172 7.99786 5.4816C7.99786 5.19149 7.88324 4.91312 7.67898 4.7071C7.64798 4.6771 5.80698 2.2821 5.80698 2.2821C5.59788 2.09461 5.32498 1.9942 5.04423 2.00145C4.76347 2.0087 4.49612 2.12306 4.29698 2.3211L3.14698 3.3211C-2.49501 10.1051 14.776 26.4181 20.721 20.8001L21.632 19.7501C21.8454 19.5524 21.9737 19.2794 21.9895 18.9888C22.0054 18.6982 21.9076 18.4129 21.717 18.1931Z" fill="white"/>
</g>
<defs>
<clipPath id="clip0_43_485">
<rect width="24" height="24" fill="white"/>
</clipPath>
</defs>
</svg>
