<svg width="64" height="64" viewBox="0 0 64 64" fill="none" xmlns="http://www.w3.org/2000/svg">
<g clip-path="url(#clip0_47_313)">
<path d="M61.8505 30.9339C60.4336 29.0417 58.4203 27.6824 56.1358 27.0752C57.2493 23.8384 58.0721 20.5088 58.5944 17.1259C58.7651 15.8962 58.648 14.6437 58.2524 13.4669C57.8568 12.2902 57.1934 11.2213 56.3145 10.3445C55.4356 9.46769 54.3652 8.80684 53.1875 8.41398C52.0099 8.02113 50.7571 7.907 49.5278 8.08058C49.1918 8.12591 48.1945 8.27258 46.8318 8.53658C47.6756 6.66846 48.0753 4.63035 47.9998 2.58191C47.9886 2.23172 47.9085 1.88716 47.7641 1.56792C47.6198 1.24867 47.4139 0.960986 47.1584 0.721287C46.9028 0.481588 46.6026 0.29457 46.2748 0.17091C45.9469 0.047251 45.598 -0.010628 45.2478 0.000578124C44.8976 0.0117843 44.553 0.091856 44.2338 0.236222C43.9145 0.380587 43.6269 0.58642 43.3872 0.841967C43.1475 1.09751 42.9604 1.39777 42.8368 1.72559C42.7131 2.05342 42.6552 2.40239 42.6664 2.75258C42.7119 4.04076 42.4476 5.32104 41.8958 6.48591C41.5101 5.44499 40.96 4.47265 40.2664 3.60591C39.0876 2.2643 37.5912 1.23965 35.9142 0.625654C34.2371 0.0116595 32.4329 -0.172078 30.6664 0.0912449C28.7296 0.246714 26.8783 0.955768 25.3331 2.13391C23.5863 0.819761 21.473 0.0833252 19.2878 0.0272448C16.5149 -0.241501 13.7486 0.599431 11.5944 2.36591C10.5007 3.3397 9.61754 4.52686 8.99937 5.85446C8.3812 7.18205 8.04103 8.62203 7.99978 10.0859C7.9266 12.43 8.60907 14.7354 9.94644 16.6619C8.31951 18.0568 7.0566 19.8268 6.26677 21.8191C5.47695 23.8113 5.18396 25.9658 5.41311 28.0966C3.30419 29.2718 1.66069 31.133 0.755533 33.3712C-0.149626 35.6093 -0.261986 38.0898 0.437109 40.4006C2.2638 46.7566 5.66372 52.5494 10.3224 57.2433C14.7918 61.6012 20.7948 64.0281 27.0371 64.0006H36.9624C43.204 64.0285 49.2064 61.6015 53.6744 57.2433C58.3349 52.5503 61.7358 46.7572 63.5625 40.4006C64.0385 38.7988 64.1317 37.1076 63.8343 35.4633C63.5369 33.8189 62.8574 32.2675 61.8505 30.9339ZM50.2691 13.3606C50.6818 13.3049 51.1018 13.3454 51.4962 13.4789C51.8907 13.6123 52.2489 13.8352 52.543 14.13C52.837 14.4249 53.059 14.7837 53.1914 15.1785C53.3238 15.5733 53.3632 15.9934 53.3064 16.4059C52.7472 19.9077 51.8405 23.3452 50.5998 26.6672H43.7704L47.2184 23.2192C47.7042 22.7163 47.973 22.0427 47.9669 21.3435C47.9608 20.6443 47.6804 19.9755 47.186 19.4811C46.6915 18.9866 46.0227 18.7062 45.3235 18.7001C44.6243 18.694 43.9507 18.9628 43.4478 19.4486L36.2291 26.6672H32.0984C31.9037 25.2647 32.0374 23.8361 32.4891 22.4941C32.9407 21.152 33.698 19.9333 34.7011 18.9339C35.8398 17.7846 40.2051 14.6672 50.2691 13.3606ZM13.3331 10.2646C13.3491 9.53044 13.5147 8.80727 13.8196 8.13924C14.1245 7.47122 14.5623 6.87236 15.1064 6.37925C16.2066 5.56603 17.5734 5.19838 18.9331 5.34991C19.5899 5.32291 20.2449 5.43511 20.8552 5.67915C21.4656 5.92318 22.0174 6.29354 22.4744 6.76591C22.8343 7.16795 23.2749 7.48953 23.7675 7.70964C24.2601 7.92974 24.7936 8.04342 25.3331 8.04325C25.8714 8.04059 26.4031 7.92478 26.8938 7.70335C27.3844 7.48192 27.823 7.15981 28.1811 6.75791C28.5788 6.3372 29.0561 5.99964 29.5853 5.7648C30.1144 5.52997 30.685 5.40254 31.2638 5.38991C32.1452 5.2329 33.0519 5.29686 33.9026 5.57609C34.7533 5.85531 35.5215 6.34107 36.1384 6.98991C36.948 8.0263 37.3705 9.31269 37.3331 10.6272C37.3331 10.8006 37.3331 11.1792 37.3331 11.1792C33.7931 12.454 30.7691 14.855 28.7251 18.0139C27.0412 16.0205 24.8008 14.575 22.2905 13.8624C19.7803 13.1498 17.1145 13.2026 14.6344 14.0139C13.7495 12.9695 13.2855 11.6327 13.3331 10.2646ZM10.6664 26.6672C10.6664 24.5455 11.5093 22.5107 13.0096 21.0104C14.5099 19.5101 16.5447 18.6672 18.6664 18.6672C20.7882 18.6672 22.823 19.5101 24.3233 21.0104C25.8236 22.5107 26.6664 24.5455 26.6664 26.6672H10.6664ZM58.4425 38.9046C56.8491 44.3903 53.9167 49.3938 49.9091 53.4646C46.444 56.8313 41.7937 58.7 36.9624 58.6673H27.0371C22.2045 58.6988 17.553 56.8304 14.0851 53.4646C10.0773 49.3939 7.14489 44.3904 5.55178 38.9046C5.31271 38.0972 5.26634 37.245 5.4164 36.4165C5.56645 35.588 5.90874 34.8062 6.41578 34.1339C6.90775 33.4703 7.54871 32.9315 8.28702 32.561C9.02534 32.1904 9.84036 31.9985 10.6664 32.0006H53.3331C54.1619 31.996 54.9801 32.1867 55.7214 32.5574C56.4627 32.928 57.1062 33.4681 57.5998 34.1339C58.1032 34.808 58.4417 35.5906 58.588 36.4191C58.7343 37.2476 58.6845 38.0988 58.4425 38.9046Z" fill="#FFA200"/>
</g>
<defs>
<clipPath id="clip0_47_313">
<rect width="64" height="64" fill="white"/>
</clipPath>
</defs>
</svg>
