<svg width="64" height="64" viewBox="0 0 64 64" fill="none" xmlns="http://www.w3.org/2000/svg">
<g clip-path="url(#clip0_47_312)">
<path d="M24 63.9983H2.66667C1.95942 63.9983 1.28115 63.7174 0.781049 63.2173C0.280952 62.7172 0 62.0389 0 61.3317C0 60.6244 0.280952 59.9462 0.781049 59.4461C1.28115 58.946 1.95942 58.665 2.66667 58.665H24C24.7072 58.665 25.3855 58.946 25.8856 59.4461C26.3857 59.9462 26.6667 60.6244 26.6667 61.3317C26.6667 62.0389 26.3857 62.7172 25.8856 63.2173C25.3855 63.7174 24.7072 63.9983 24 63.9983Z" fill="#FFA200"/>
<path d="M18.6667 53.3334H2.66667C1.95942 53.3334 1.28115 53.0524 0.781049 52.5523C0.280952 52.0522 0 51.3739 0 50.6667C0 49.9594 0.280952 49.2812 0.781049 48.7811C1.28115 48.281 1.95942 48 2.66667 48H18.6667C19.3739 48 20.0522 48.281 20.5523 48.7811C21.0524 49.2812 21.3333 49.9594 21.3333 50.6667C21.3333 51.3739 21.0524 52.0522 20.5523 52.5523C20.0522 53.0524 19.3739 53.3334 18.6667 53.3334Z" fill="#FFA200"/>
<path d="M13.3333 42.6683H2.66667C1.95942 42.6683 1.28115 42.3874 0.781049 41.8873C0.280952 41.3872 0 40.7089 0 40.0016C0 39.2944 0.280952 38.6161 0.781049 38.116C1.28115 37.6159 1.95942 37.335 2.66667 37.335H13.3333C14.0406 37.335 14.7189 37.6159 15.219 38.116C15.719 38.6161 16 39.2944 16 40.0016C16 40.7089 15.719 41.3872 15.219 41.8873C14.7189 42.3874 14.0406 42.6683 13.3333 42.6683Z" fill="#FFA200"/>
<path d="M34.6669 63.8788C33.9597 63.9103 33.2689 63.6595 32.7465 63.1817C32.2242 62.7039 31.913 62.0381 31.8816 61.3308C31.8501 60.6236 32.1009 59.9328 32.5787 59.4105C33.0566 58.8881 33.7223 58.577 34.4296 58.5455C39.4761 58.0838 44.2866 56.1936 48.2976 53.0964C52.3087 49.9992 55.3541 45.8232 57.0773 41.0576C58.8005 36.2919 59.1301 31.1339 58.0275 26.1877C56.9249 21.2414 54.4358 16.7118 50.8516 13.1292C47.2674 9.54671 42.7366 7.05963 37.7899 5.95929C32.8431 4.85896 27.6853 5.19093 22.9204 6.91633C18.1556 8.64174 13.981 11.6891 10.8857 15.7016C7.79032 19.714 5.90237 24.5254 5.44294 29.5722C5.37929 30.2766 5.03842 30.9269 4.49531 31.3799C3.95221 31.833 3.25136 32.0518 2.54694 31.9882C1.84253 31.9245 1.19225 31.5836 0.739164 31.0405C0.286077 30.4974 0.067294 29.7966 0.130946 29.0922C0.874649 20.8877 4.75388 13.286 10.9611 7.86968C17.1684 2.45332 25.2254 -0.360454 33.455 0.0140732C41.6847 0.3886 49.4528 3.92257 55.1424 9.88035C60.8321 15.8381 64.0048 23.7607 64.0002 31.9988C64.0411 39.9944 61.0707 47.7124 55.6799 53.6175C50.2892 59.5227 42.8731 63.1822 34.9069 63.8682C34.8269 63.8762 34.7442 63.8788 34.6669 63.8788Z" fill="#FFA200"/>
<path d="M32.0007 16C31.2934 16 30.6151 16.281 30.115 16.781C29.6149 17.2811 29.334 17.9594 29.334 18.6667V32C29.3341 32.7072 29.6152 33.3854 30.1153 33.8853L38.1153 41.8853C38.6183 42.3711 39.2919 42.6399 39.9911 42.6338C40.6902 42.6277 41.3591 42.3473 41.8535 41.8528C42.3479 41.3584 42.6284 40.6896 42.6344 39.9904C42.6405 39.2912 42.3717 38.6176 41.886 38.1147L34.6673 30.896V18.6667C34.6673 17.9594 34.3864 17.2811 33.8863 16.781C33.3862 16.281 32.7079 16 32.0007 16Z" fill="#FFA200"/>
</g>
<defs>
<clipPath id="clip0_47_312">
<rect width="64" height="64" fill="white"/>
</clipPath>
</defs>
</svg>
